<svg width="46" height="40" viewBox="0 0 46 40" fill="none" xmlns="http://www.w3.org/2000/svg">
<g clip-path="url(#clip0_1_3593)">
<path d="M20.1283 15.0195C20.3359 20.2516 24.5715 24.5702 29.7621 24.9855C31.2155 25.0685 32.6689 24.9024 33.9977 24.4872C34.7036 24.238 37.3197 25.5668 38.8146 26.3143C39.1883 26.4804 39.6451 26.1482 39.479 25.7329C38.9391 24.2796 38.1502 21.9126 38.5239 21.4974C40.3095 19.4627 41.3476 16.722 41.14 13.7322C40.7662 8.50005 36.4061 4.26449 31.1324 4.01534C24.9452 3.68314 19.8376 8.79072 20.1283 15.0195Z" fill="#F5C0C0"/>
<path d="M29.9696 23.9885C29.6374 31.38 23.6994 37.4842 16.3494 38.0655C14.2732 38.1901 12.28 37.9409 10.3698 37.3596C9.41473 37.0274 5.719 38.8545 3.5597 39.9341C3.0614 40.1833 2.397 39.685 2.64615 39.1036C3.43512 37.0274 4.51477 33.7469 4.01647 33.124C1.48344 30.2588 0.0715915 26.397 0.320742 22.1614C0.860568 14.8115 7.0478 8.83186 14.4393 8.49966C23.1595 8.04289 30.3434 15.2682 29.9696 23.9885Z" fill="#FF7171"/>
<path d="M11.3665 19.2554H19.0071C19.5054 19.2554 19.9622 18.7986 19.9622 18.3003C19.9622 17.802 19.5054 17.3452 19.0071 17.3452H11.3665C10.8682 17.3452 10.4114 17.802 10.4114 18.3003C10.3283 18.7986 10.7851 19.2554 11.3665 19.2554Z" fill="white"/>
<path d="M19.0068 27.2285H11.3662C10.8679 27.2285 10.4111 27.6853 10.4111 28.1836C10.4111 28.6819 10.8679 29.1387 11.3662 29.1387H19.0068C19.5051 29.1387 19.9619 28.6819 19.9619 28.1836C20.0034 27.6853 19.5466 27.2285 19.0068 27.2285Z" fill="white"/>
<path d="M22.9102 22.2449H7.42138C6.92308 22.2449 6.46631 22.7017 6.46631 23.2C6.46631 23.6983 6.92308 24.155 7.42138 24.155H22.8272C23.3255 24.155 23.7823 23.6983 23.7823 23.2C23.8653 22.7017 23.4085 22.2449 22.9102 22.2449Z" fill="white"/>
</g>
<defs>
<clipPath id="clip0_1_3593">
<rect width="45.4148" height="40" fill="white" transform="translate(0.29248)"/>
</clipPath>
</defs>
</svg>
