<svg width="32" height="40" viewBox="0 0 32 40" fill="none" xmlns="http://www.w3.org/2000/svg">
<path d="M25.7446 13.383C23.4375 10.8734 21.4462 8.62656 21.4462 5.23227C21.4462 3.30164 21.8307 1.42938 21.8341 1.41109C21.9062 1.06547 21.8193 0.706172 21.5961 0.432656C21.3741 0.159063 21.04 0 20.6875 0C18.7042 0 13.0428 1.46828 13.0428 7.99141C13.0428 12.1605 12.1982 13.5227 11.8343 13.882C11.6295 14.0856 11.3559 14.2001 11.1339 14.1669C10.0548 14.1543 9.85102 12.6093 9.84414 12.5509C9.80062 12.1527 9.55578 11.8037 9.19523 11.6274C8.83477 11.4489 8.41242 11.4684 8.06797 11.6789C3.49617 14.4725 0.765625 19.3351 0.765625 24.6875C0.765625 33.0875 7.6 40 16 40C24.4 40 31.2344 33.0875 31.2344 24.6875C31.2344 19.3603 28.3173 16.1845 25.7446 13.383Z" fill="url(#paint0_linear_1_3550)"/>
<path d="M14.8281 22.3433C14.8281 20.4047 13.2511 18.8276 11.3125 18.8276C9.37391 18.8276 7.79688 20.4047 7.79688 22.3433C7.79688 24.2819 9.37391 25.8589 11.3125 25.8589C13.2511 25.8589 14.8281 24.2819 14.8281 22.3433ZM10.1406 22.3433C10.1406 21.6967 10.6659 21.1714 11.3125 21.1714C11.9591 21.1714 12.4844 21.6967 12.4844 22.3433C12.4844 22.9898 11.9591 23.5151 11.3125 23.5151C10.6659 23.5151 10.1406 22.9898 10.1406 22.3433ZM20.6875 25.8589C18.7489 25.8589 17.1719 27.4359 17.1719 29.3745C17.1719 31.3131 18.7489 32.8901 20.6875 32.8901C22.6261 32.8901 24.2031 31.3131 24.2031 29.3745C24.2031 27.4359 22.6262 25.8589 20.6875 25.8589ZM20.6875 30.5464C20.0409 30.5464 19.5156 30.0211 19.5156 29.3745C19.5156 28.7279 20.0409 28.2026 20.6875 28.2026C21.3341 28.2026 21.8594 28.7279 21.8594 29.3745C21.8594 30.0211 21.3341 30.5464 20.6875 30.5464ZM21.4199 19.084C20.9141 18.6812 20.1782 18.7658 19.772 19.2671L10.397 30.9858C9.99297 31.4917 10.0754 32.2287 10.5801 32.6338C11.0838 33.0362 11.8201 32.9571 12.228 32.4507L21.603 20.7319C22.007 20.2261 21.9246 19.4891 21.4199 19.084Z" fill="url(#paint1_linear_1_3550)"/>
<defs>
<linearGradient id="paint0_linear_1_3550" x1="16" y1="40" x2="16" y2="0" gradientUnits="userSpaceOnUse">
<stop stop-color="#FD5900"/>
<stop offset="1" stop-color="#FFDE00"/>
</linearGradient>
<linearGradient id="paint1_linear_1_3550" x1="16" y1="32.8901" x2="16" y2="18.8276" gradientUnits="userSpaceOnUse">
<stop stop-color="#FFE59A"/>
<stop offset="1" stop-color="#FFFFD5"/>
</linearGradient>
</defs>
</svg>
