<svg width="46" height="40" viewBox="0 0 46 40" fill="none" xmlns="http://www.w3.org/2000/svg">
<g clip-path="url(#clip0_1_3577)">
<path d="M32.5501 14.9543H7.60422C7.09529 14.9543 6.6072 15.1565 6.24734 15.5164C5.88747 15.8762 5.6853 16.3643 5.6853 16.8733V19.4318H33.1897V15.594C33.1897 15.4243 33.1223 15.2616 33.0024 15.1417C32.8824 15.0217 32.7197 14.9543 32.5501 14.9543Z" fill="#1B67CC"/>
<path d="M28.0727 6H12.7214C12.3682 6 12.0818 6.28638 12.0818 6.63964V19.4324C12.0818 19.7857 12.3682 20.072 12.7214 20.072H28.0727C28.426 20.072 28.7124 19.7857 28.7124 19.4324V6.63964C28.7124 6.28638 28.426 6 28.0727 6Z" fill="#4CBFBF"/>
<path d="M25.5142 10.4771C25.1751 10.4768 24.8499 10.3418 24.6101 10.102C24.3702 9.86219 24.2353 9.53703 24.2349 9.19787C24.235 9.11386 24.2184 9.03068 24.1863 8.95306C24.1542 8.87545 24.107 8.80492 24.0476 8.74552C23.9882 8.68612 23.9177 8.63901 23.8401 8.60687C23.7625 8.57474 23.6793 8.55821 23.5953 8.55823H17.1989C17.0293 8.55823 16.8666 8.62562 16.7466 8.74557C16.6267 8.86553 16.5593 9.02822 16.5593 9.19787C16.559 9.53705 16.4241 9.86224 16.1842 10.1021C15.9444 10.3419 15.6192 10.4768 15.28 10.4771C15.1104 10.4771 14.9477 10.5445 14.8277 10.6645C14.7078 10.7844 14.6404 10.9471 14.6404 11.1168V19.4321C14.6404 19.6017 14.7078 19.7644 14.8277 19.8844C14.9477 20.0043 15.1104 20.0717 15.28 20.0717H25.5142C25.5982 20.0717 25.6814 20.0552 25.759 20.0231C25.8366 19.9909 25.9072 19.9438 25.9666 19.8844C26.026 19.825 26.0731 19.7545 26.1052 19.6769C26.1374 19.5993 26.1539 19.5161 26.1539 19.4321V11.1168C26.1539 11.0328 26.1374 10.9496 26.1052 10.872C26.0731 10.7944 26.026 10.7238 25.9666 10.6644C25.9072 10.605 25.8366 10.5579 25.759 10.5258C25.6814 10.4936 25.5982 10.4771 25.5142 10.4771Z" fill="#3BA5AD"/>
<path d="M20.3972 16.2339C19.5493 16.2349 18.7364 16.5722 18.1368 17.1717C17.5372 17.7713 17.2 18.5842 17.199 19.4321C17.199 19.6017 17.2664 19.7644 17.3863 19.8844C17.5063 20.0043 17.669 20.0717 17.8386 20.0717H22.9557C23.0397 20.0717 23.1229 20.0552 23.2005 20.0231C23.2781 19.9909 23.3487 19.9438 23.4081 19.8844C23.4675 19.825 23.5146 19.7545 23.5467 19.6769C23.5788 19.5993 23.5954 19.5161 23.5954 19.4321C23.5944 18.5842 23.2571 17.7713 22.6575 17.1717C22.058 16.5722 21.2451 16.2349 20.3972 16.2339Z" fill="#2E8C99"/>
<path d="M34.469 18.7917H7.60422C7.09529 18.7917 6.6072 18.5895 6.24734 18.2297C5.88747 17.8698 5.6853 17.3817 5.6853 16.8728V39.2601C5.6853 39.4298 5.75269 39.5925 5.87265 39.7124C5.9926 39.8324 6.1553 39.8998 6.32494 39.8998H34.469C34.9779 39.8998 35.466 39.6976 35.8259 39.3377C36.1857 38.9779 36.3879 38.4898 36.3879 37.9808V20.7106C36.3879 20.2017 36.1857 19.7136 35.8259 19.3538C35.466 18.9939 34.9779 18.7917 34.469 18.7917Z" fill="#3083DC"/>
<path d="M38.307 25.1887H34.1493C33.0467 25.1887 31.9892 25.6268 31.2094 26.4065C30.4297 27.1862 29.9917 28.2437 29.9917 29.3464C29.9917 30.449 30.4297 31.5066 31.2094 32.2863C31.9892 33.066 33.0467 33.504 34.1493 33.504H38.307C38.391 33.504 38.4742 33.4875 38.5518 33.4554C38.6294 33.4232 38.6999 33.3761 38.7593 33.3167C38.8187 33.2573 38.8658 33.1868 38.898 33.1092C38.9301 33.0316 38.9466 32.9484 38.9466 32.8644V25.8284C38.9466 25.7444 38.9301 25.6612 38.898 25.5836C38.8658 25.5059 38.8187 25.4354 38.7593 25.376C38.6999 25.3166 38.6294 25.2695 38.5518 25.2374C38.4742 25.2052 38.391 25.1887 38.307 25.1887Z" fill="#1B67CC"/>
<path d="M34.1491 30.9461C35.0323 30.9461 35.7482 30.2302 35.7482 29.347C35.7482 28.4639 35.0323 27.7479 34.1491 27.7479C33.266 27.7479 32.55 28.4639 32.55 29.347C32.55 30.2302 33.266 30.9461 34.1491 30.9461Z" fill="#0F51BA"/>
<path d="M14.8083 23.7838C12.3505 23.5591 10.0227 22.5785 8.14517 20.9766C8.02978 20.8789 7.88348 20.8253 7.73229 20.8253C7.58109 20.8253 7.43479 20.8789 7.3194 20.9766C5.44184 22.5785 3.11406 23.5591 0.656294 23.7838C0.493892 23.794 0.341472 23.8656 0.230065 23.9842C0.118658 24.1028 0.0566413 24.2594 0.0566406 24.4222L0.0566406 29.9628C0.0588448 32.1929 0.795713 34.3601 2.1533 36.1294C3.51088 37.8986 5.41355 39.1713 7.56707 39.7507C7.6755 39.7798 7.78971 39.7798 7.89814 39.7507C10.0515 39.1712 11.954 37.8984 13.3115 36.1292C14.6689 34.3599 15.4057 32.1928 15.4079 29.9628V24.4222C15.4079 24.2594 15.3459 24.1028 15.2345 23.9842C15.1231 23.8656 14.9707 23.794 14.8083 23.7838Z" fill="#FFCB5B"/>
<path d="M12.9834 25.4608C11.2325 25.0647 9.57257 24.3407 8.09113 23.327C7.98532 23.2553 7.86042 23.2169 7.73258 23.2169C7.60474 23.2169 7.47984 23.2553 7.37403 23.327C5.89258 24.3407 4.2326 25.0647 2.48178 25.4608C2.33859 25.4914 2.21024 25.5702 2.11815 25.6841C2.02607 25.7979 1.97583 25.9399 1.97583 26.0864V29.962C1.97503 31.6742 2.50963 33.3439 3.5048 34.7372C4.49997 36.1306 5.9059 37.1779 7.52581 37.7326C7.66006 37.7784 7.8057 37.7784 7.93995 37.7326C9.55972 37.1778 10.9655 36.1304 11.9605 34.7371C12.9556 33.3437 13.4901 31.6742 13.4893 29.962V26.0864C13.4893 25.9399 13.4391 25.798 13.347 25.6841C13.2549 25.5702 13.1265 25.4914 12.9834 25.4608Z" fill="#C86300"/>
<path d="M7.09278 32.1194C7.00877 32.1195 6.92557 32.103 6.84796 32.0709C6.77036 32.0387 6.69987 31.9915 6.64056 31.932L5.36128 30.6527C5.30113 30.5935 5.2533 30.523 5.22054 30.4452C5.18778 30.3674 5.17075 30.2839 5.17042 30.1995C5.17009 30.1151 5.18647 30.0314 5.21862 29.9534C5.25076 29.8753 5.29804 29.8044 5.35773 29.7447C5.41742 29.6851 5.48833 29.6378 5.56637 29.6056C5.64442 29.5735 5.72806 29.5571 5.81246 29.5574C5.89687 29.5578 5.98038 29.5748 6.05817 29.6075C6.13597 29.6403 6.20651 29.6881 6.26573 29.7483L7.09278 30.5753L9.19911 28.469C9.25843 28.4093 9.32895 28.3618 9.40663 28.3294C9.48431 28.297 9.56763 28.2803 9.6518 28.2802C9.73597 28.28 9.81934 28.2965 9.89713 28.3286C9.97492 28.3608 10.0456 28.408 10.1051 28.4675C10.1646 28.527 10.2118 28.5977 10.2439 28.6755C10.2761 28.7533 10.2926 28.8366 10.2924 28.9208C10.2923 29.005 10.2755 29.0883 10.2431 29.166C10.2107 29.2437 10.1633 29.3142 10.1036 29.3735L7.545 31.932C7.48569 31.9915 7.4152 32.0387 7.33759 32.0709C7.25998 32.103 7.17679 32.1195 7.09278 32.1194Z" fill="white"/>
</g>
<defs>
<clipPath id="clip0_1_3577">
<rect width="45.8868" height="40" fill="white" transform="translate(0.0566406)"/>
</clipPath>
</defs>
</svg>
