<svg width="36" height="36" viewBox="0 0 36 36" fill="none" xmlns="http://www.w3.org/2000/svg">
<path d="M28.2853 0H4.28565C1.91875 0 0 1.91875 0 4.28565V29.9995C0 32.3664 1.91875 34.2852 4.28565 34.2852H28.2853C30.6522 34.2852 32.5709 32.3664 32.5709 29.9995V4.28565C32.5709 1.91875 30.6522 0 28.2853 0Z" fill="#D5825F"/>
<path d="M23.1425 0V11.6055C23.142 11.9639 23.0291 12.313 22.8198 12.6039C22.6106 12.8948 22.3154 13.1128 21.9758 13.2273C21.6362 13.3417 21.2693 13.3469 20.9267 13.242C20.584 13.1372 20.2828 12.9276 20.0654 12.6427L19.9712 12.5141C19.5683 11.9827 19.3026 11.657 19.0198 11.657C18.6512 11.657 18.3598 12.0084 17.9655 12.5398C17.7986 12.8547 17.5593 13.1254 17.2672 13.3296C16.9751 13.5338 16.6386 13.6656 16.2855 13.7141C15.9296 13.6655 15.5882 13.5417 15.2838 13.3511C14.9793 13.1605 14.7189 12.9073 14.5198 12.6084C14.0913 12.1455 13.6455 11.657 13.1998 11.657C13.0713 11.657 12.9341 11.6998 12.5998 12.2398C12.4036 12.5565 12.1096 12.8006 11.7622 12.9352C11.4149 13.0698 11.0331 13.0876 10.6747 12.9859C10.3163 12.8842 10.0009 12.6685 9.77599 12.3715C9.55113 12.0745 9.42913 11.7124 9.42847 11.3398V0H23.1425Z" fill="#FFD0BB"/>
<path d="M26.571 36.0002C31.7782 36.0002 35.9994 31.7789 35.9994 26.5717C35.9994 21.3646 31.7782 17.1433 26.571 17.1433C21.3638 17.1433 17.1426 21.3646 17.1426 26.5717C17.1426 31.7789 21.3638 36.0002 26.571 36.0002Z" fill="#4DD82B"/>
<path d="M11.9997 25.7139H5.99983C5.77251 25.7139 5.55449 25.6236 5.39375 25.4628C5.233 25.3021 5.1427 25.0841 5.1427 24.8568C5.1427 24.6294 5.233 24.4114 5.39375 24.2507C5.55449 24.0899 5.77251 23.9996 5.99983 23.9996H11.9997C12.2271 23.9996 12.4451 24.0899 12.6058 24.2507C12.7666 24.4114 12.8569 24.6294 12.8569 24.8568C12.8569 25.0841 12.7666 25.3021 12.6058 25.4628C12.4451 25.6236 12.2271 25.7139 11.9997 25.7139Z" fill="white"/>
<path d="M11.9997 29.1425H5.99983C5.77251 29.1425 5.55449 29.0522 5.39375 28.8914C5.233 28.7307 5.1427 28.5127 5.1427 28.2854C5.1427 28.058 5.233 27.84 5.39375 27.6793C5.55449 27.5185 5.77251 27.4282 5.99983 27.4282H11.9997C12.2271 27.4282 12.4451 27.5185 12.6058 27.6793C12.7666 27.84 12.8569 28.058 12.8569 28.2854C12.8569 28.5127 12.7666 28.7307 12.6058 28.8914C12.4451 29.0522 12.2271 29.1425 11.9997 29.1425Z" fill="white"/>
<path d="M24.8568 28.285C24.6295 28.2849 24.4115 28.1946 24.2508 28.0338L21.6794 25.4625C21.5187 25.3017 21.4285 25.0837 21.4285 24.8565C21.4285 24.6292 21.5187 24.4112 21.6794 24.2505L24.2508 21.6791C24.4125 21.5229 24.629 21.4366 24.8537 21.4385C25.0785 21.4405 25.2934 21.5306 25.4524 21.6895C25.6113 21.8484 25.7014 22.0634 25.7034 22.2882C25.7053 22.5129 25.6189 22.7294 25.4628 22.8911L23.4974 24.8565L25.4628 26.8219C25.5826 26.9417 25.6642 27.0944 25.6973 27.2607C25.7303 27.4269 25.7134 27.5992 25.6485 27.7558C25.5837 27.9124 25.4738 28.0463 25.3329 28.1405C25.192 28.2347 25.0263 28.2849 24.8568 28.285Z" fill="white"/>
<path d="M27.4281 25.7139H22.2854C22.058 25.7139 21.84 25.6236 21.6793 25.4628C21.5185 25.3021 21.4282 25.0841 21.4282 24.8568C21.4282 24.6294 21.5185 24.4114 21.6793 24.2507C21.84 24.0899 22.058 23.9996 22.2854 23.9996H27.4281C27.6555 23.9996 27.8735 24.0899 28.0342 24.2507C28.195 24.4114 28.2853 24.6294 28.2853 24.8568C28.2853 25.0841 28.195 25.3021 28.0342 25.4628C27.8735 25.6236 27.6555 25.7139 27.4281 25.7139Z" fill="white"/>
<path d="M28.2852 30.8567H23.9996C23.7723 30.8567 23.5542 30.7664 23.3935 30.6056C23.2328 30.4449 23.1425 30.2269 23.1425 29.9995C23.1425 29.7722 23.2328 29.5542 23.3935 29.3935C23.5542 29.2327 23.7723 29.1424 23.9996 29.1424H28.2852C28.7399 29.1424 29.1759 28.9618 29.4974 28.6403C29.8189 28.3188 29.9995 27.8828 29.9995 27.4282C29.9995 26.9735 29.8189 26.5375 29.4974 26.216C29.1759 25.8945 28.7399 25.7139 28.2852 25.7139H23.9996C23.7723 25.7139 23.5542 25.6236 23.3935 25.4628C23.2328 25.3021 23.1425 25.0841 23.1425 24.8568C23.1425 24.6294 23.2328 24.4114 23.3935 24.2507C23.5542 24.0899 23.7723 23.9996 23.9996 23.9996H28.2852C29.1945 23.9996 30.0666 24.3609 30.7096 25.0038C31.3525 25.6468 31.7138 26.5189 31.7138 27.4282C31.7138 28.3375 31.3525 29.2095 30.7096 29.8525C30.0666 30.4955 29.1945 30.8567 28.2852 30.8567Z" fill="white"/>
</svg>
